# xmcd CD database file
#
# Track frame offsets:
#	150
#	18796
#	26649
#	46296
#	68505
#	87142
#	104553
#	123627
#	147110
#	158911
#	176968
#	192446
#	220459
#
# Disc length: 3212 seconds
#
# Revision: 1
# Processed by: cddbd v1.5.2PL0 Copyright (c) Steve Scherf et al.
# Submitted via: CDex 1.51
#
DISCID=b70c8a0d
DTITLE=Doc Mehl and Washtub Jerry - Doc and Tub, Live
DYEAR=2014
DGENRE=Country
TTITLE0=01-Brand New Leather
TTITLE1=02-Fence Posts Made of Stone
TTITLE2=03-I'd Rather Be...
TTITLE3=04-Twenty Pounds Over
TTITLE4=05-Graduation
TTITLE5=06-Sweet Barbara Wire
TTITLE6=07-A Custom Washtub Bass
TTITLE7=08-Jupiter and Mars
TTITLE8=09-Ode to Rhymin'
TTITLE9=10-Stupid Dog
TTITLE10=11-Happy Trail Mix
TTITLE11=12-Paniolo
TTITLE12=13-Bonus Track - the Blackened Blues
EXTD=YEAR: 2014
EXTT0=
EXTT1=
EXTT2=
EXTT3=
EXTT4=
EXTT5=
EXTT6=
EXTT7=
EXTT8=
EXTT9=
EXTT10=
EXTT11=
EXTT12=
PLAYORDER=
